<svg xmlns="http://www.w3.org/2000/svg" width="86" height="102.5" viewBox="7.5 6.5 86 102.5" role="img" aria-label="Blank chip icon">
  <defs>
    <filter id="shadow" x="-20%" y="-20%" width="140%" height="150%">
      <feDropShadow dx="0" dy="2" stdDeviation="1.5" flood-color="#000000" flood-opacity="0.28"/>
    </filter>
  </defs>

  <g filter="url(#shadow)">
    <rect x="10" y="82" width="13" height="27" fill="#b9c3c8"/>
    <rect x="33" y="82" width="13" height="22" fill="#b9c3c8"/>
    <rect x="56" y="82" width="13" height="22" fill="#b9c3c8"/>
    <rect x="79" y="82" width="13" height="27" fill="#b9c3c8"/>

    <rect x="9" y="19" width="83" height="67" rx="4" fill="#f7faf7"/>
    <path d="M13 19h75a4 4 0 0 1 4 4v56a7 7 0 0 1-7 7H16a7 7 0 0 1-7-7V23a4 4 0 0 1 4-4Z" fill="#dfdfdf"/>
    <path d="M10 72H91" fill="none" stroke="#dfe7e2" stroke-width="2" stroke-linecap="round"/>
    <path d="M9 75c7 5.5 21 9 41.5 9S85 80.5 92 75v4c0 3.9-3.1 7-7 7H16c-3.9 0-7-3.1-7-7v-4Z" fill="#eef3ef"/>
    <path d="M9 19H34V8H67V19H92" fill="none" stroke="#dfe7e2" stroke-width="3" stroke-linecap="round" stroke-linejoin="round"/>
  </g>
</svg>
