<svg width="252" height="403" viewBox="0 0 252 403" fill="none" xmlns="http://www.w3.org/2000/svg">
  <defs>
    <linearGradient id="orange" x1="99" y1="16" x2="99" y2="338" gradientUnits="userSpaceOnUse">
      <stop stop-color="#dc8626"/>
      <stop offset="1" stop-color="#c46c17"/>
    </linearGradient>
    <linearGradient id="face" x1="99" y1="53" x2="99" y2="291" gradientUnits="userSpaceOnUse">
      <stop stop-color="#ffd49a"/>
      <stop offset="1" stop-color="#ffc37f"/>
    </linearGradient>
    <linearGradient id="screen" x1="99" y1="89" x2="99" y2="139" gradientUnits="userSpaceOnUse">
      <stop stop-color="#6f2508"/>
      <stop offset="1" stop-color="#5a1705"/>
    </linearGradient>
    <filter id="softShadow" x="-20%" y="-20%" width="140%" height="140%">
      <feDropShadow dx="0" dy="2" stdDeviation="2" flood-color="#4b1e07" flood-opacity="0.35"/>
    </filter>
  </defs>
  <g filter="url(#softShadow)">
    <path d="M30 306V42L52 16H145L168 42V306H30Z" fill="url(#orange)" stroke="#9c5617" stroke-width="1.6" stroke-linejoin="round"/>
    <path d="M52 16H145L168 42H30L52 16Z" fill="#db8425" stroke="#9c5617" stroke-width="1.6" stroke-linejoin="round"/>
    <path d="M43 291V69C43 60.2 50.2 53 59 53H139C147.8 53 155 60.2 155 69V291H43Z" fill="url(#face)" stroke="#b66418" stroke-width="1.8"/>
    <path d="M30 42H168" stroke="#a75a16" stroke-width="1.5"/>
    <path d="M31 306L43 291H155L168 306" stroke="#a75a16" stroke-width="1.5" stroke-linejoin="round"/>

    <rect x="56" y="89" width="87" height="50" rx="10" fill="url(#screen)" stroke="#a65915" stroke-width="2"/>
    <path d="M86 101L113 128" stroke="#ffe09a" stroke-width="4" stroke-linecap="round"/>
    <path d="M113 101L86 128" stroke="#ffe09a" stroke-width="4" stroke-linecap="round"/>
    <path d="M86 101L113 128" stroke="#c56d18" stroke-width="1.4" stroke-linecap="round" opacity="0.5"/>
    <path d="M113 101L86 128" stroke="#c56d18" stroke-width="1.4" stroke-linecap="round" opacity="0.5"/>

    <circle cx="100" cy="203" r="20" fill="#c57922"/>
    <circle cx="100" cy="203" r="15.5" fill="#6c2508"/>
    <circle cx="100" cy="203" r="18.5" stroke="#efb05f" stroke-width="1.5" opacity="0.5"/>

    <path d="M21 306H177L183 338H13L21 306Z" fill="#d27b20" stroke="#9c5617" stroke-width="1.5" stroke-linejoin="round"/>
    <path d="M26 321H178" stroke="#ba691b" stroke-width="1.3"/>

    <path d="M168 112C179 112 184 119 184 130V265C184 280 191 287 207 287H210C229 287 244 302 244 321V329C244 347 232 358 214 358H126" stroke="#d47f20" stroke-width="6" stroke-linecap="round" stroke-linejoin="round"/>
    <path d="M108 348H122C128 348 132 352 132 357C132 362 128 366 122 366H108C102 366 98 362 98 357C98 352 102 348 108 348Z" fill="#d47f20" stroke="#b8661c" stroke-width="1.5"/>
    <path d="M126 353H216C228 353 239 344 239 329V321C239 305 226 292 210 292H207" stroke="#b7671b" stroke-width="1.2" stroke-linecap="round" opacity="0.35"/>
  </g>
</svg>
