<svg width="252" height="403" viewBox="0 0 252 403" fill="none" xmlns="http://www.w3.org/2000/svg">
  <defs>
    <linearGradient id="bodyGreen" x1="101" y1="14" x2="101" y2="326" gradientUnits="userSpaceOnUse">
      <stop stop-color="#48b43b"/>
      <stop offset="1" stop-color="#2d8e24"/>
    </linearGradient>
    <linearGradient id="faceGreen" x1="103" y1="55" x2="103" y2="310" gradientUnits="userSpaceOnUse">
      <stop stop-color="#8de36d"/>
      <stop offset="1" stop-color="#78d85a"/>
    </linearGradient>
    <linearGradient id="darkGreen" x1="102" y1="91" x2="102" y2="145" gradientUnits="userSpaceOnUse">
      <stop stop-color="#02180f"/>
      <stop offset="1" stop-color="#03130e"/>
    </linearGradient>
    <linearGradient id="baseGreen" x1="103" y1="326" x2="103" y2="360" gradientUnits="userSpaceOnUse">
      <stop stop-color="#319523"/>
      <stop offset="1" stop-color="#237c1c"/>
    </linearGradient>
    <filter id="softShadow" x="-20%" y="-20%" width="140%" height="140%">
      <feDropShadow dx="0" dy="2" stdDeviation="2" flood-color="#041b11" flood-opacity="0.45"/>
    </filter>
  </defs>

  <g filter="url(#softShadow)">
    <path d="M31 310V40L53 14H153L175 40V310H31Z" fill="url(#bodyGreen)" stroke="#09452f" stroke-width="2" stroke-linejoin="round"/>
    <path d="M53 14H153L175 40H31L53 14Z" fill="#2e982a" stroke="#09452f" stroke-width="2" stroke-linejoin="round"/>
    <path d="M42 310V75C42 63.9 50.9 55 62 55H144C155.1 55 164 63.9 164 75V310H42Z" fill="url(#faceGreen)" stroke="#06412d" stroke-width="2"/>
    <path d="M31 40H175" stroke="#073b2a" stroke-width="1.6"/>
    <path d="M32 326L42 310H164L175 326" stroke="#073b2a" stroke-width="1.8" stroke-linejoin="round"/>

    <rect x="55" y="91" width="95" height="54" rx="10" fill="url(#darkGreen)" stroke="#073c29" stroke-width="2"/>
    <path d="M81 117L98 134L130 104" stroke="#42d76d" stroke-width="4" stroke-linecap="round" stroke-linejoin="round"/>
    <path d="M81 117L98 134L130 104" stroke="#0b5f3b" stroke-width="1.2" stroke-linecap="round" stroke-linejoin="round" opacity="0.55"/>

    <circle cx="102" cy="214" r="25" fill="#06311f"/>
    <circle cx="102" cy="214" r="18.2" fill="#0b5b31"/>
    <rect x="95" y="199" width="14" height="29" rx="4" fill="#6bc84c" stroke="#05351f" stroke-width="2"/>
    <path d="M82 214C82 202.9 90.9 194 102 194C113.1 194 122 202.9 122 214C122 225.1 113.1 234 102 234C90.9 234 82 225.1 82 214Z" stroke="#0a4a30" stroke-width="4" opacity="0.9"/>

    <path d="M102 231V251C102 282 121 302 150 302C180 302 197 286 197 258V134C197 120 190 113 176 113" stroke="#062d22" stroke-width="8" stroke-linecap="round" stroke-linejoin="round"/>
    <path d="M102 231V251C102 279 119 297 150 297C176 297 192 282 192 258V134C192 123 187 118 176 118" stroke="#83e05f" stroke-width="4" stroke-linecap="round" stroke-linejoin="round"/>
    <path d="M96 229H108V243H96V229Z" fill="#0b4d2f" stroke="#041f17" stroke-width="1.7" stroke-linejoin="round"/>

    <path d="M20 326H185L193 360H12L20 326Z" fill="url(#baseGreen)" stroke="#07452d" stroke-width="2" stroke-linejoin="round"/>
    <path d="M25 344H189" stroke="#1b6c20" stroke-width="1.3" opacity="0.55"/>
  </g>
</svg>
